0
SECTION
2
HEADER
9
$EXTMIN
10
0.000000
20
0.000000
9
$EXTMAX
10
10.500000
20
7.500000
9
$CECOLOR
62
7
9
$CELTYPE
6
DASHDOT
9
$VIEWCTR
10
5.250000
20
3.750000
9
$LIMMIN
10
0
20
0
9
$LIMMAX
10
10.500000
20
7.500000
0
ENDSEC
0
SECTION
2
TABLES
0
TABLE
2
LTYPE
70
9
0
LTYPE
2
DOT
70
0
3
..............................................
72
65
73
2
40
0.25
49
0
49
-0.25
0
LTYPE
2
DASHED
70
0
3
__ __ __ __ __ __ __ __ __ __ __ __ __ __ __  
72
65
73
2
40
0.75
49
0.5
49
-0.25
0
LTYPE
2
DASHDOT
70
0
3
__ . __ . __ . __ . __ . __ . __ . __ . __ .  
72
65
73
4
40
1
49
0.5
49
-0.25
49
0
49
-0.25
0
LTYPE
2
DIVIDE
70
0
3
__ . . __ . . __ . . __ . . __ . . __ . . __  
72
65
73
6
40
1.25
49
0.5
49
-0.25
49
0
49
-0.25
49
0
49
-0.25
0
LTYPE
2
CENTER
70
0
3
____ _ ____ _ ____ _ ____ _ ____ _ ____ _ ____
72
65
73
4
40
2
49
1.25
49
-0.25
49
0.25
49
-0.25
0
LTYPE
2
HIDDEN
70
0
3
_ _ _ _ _ _ _ _ _ _ _ _ _ _ _ _ _ _ _ _ _ _ _ 
72
65
73
2
40
0.25
49
0.12
49
-0.12
0
ENDTAB
0
TABLE
2
STYLE
70
1
0
STYLE
2
STANDARD
70
0
40
0
41
1
50
0
71
0
42
0
3
txt
0
ENDTAB
0
TABLE
2
LAYER
70
9
0
LAYER
2
1
70
0
62
7
6
CONTINUOUS
0
LAYER
2
2
70
0
62
7
6
CONTINUOUS
0
LAYER
2
3
70
0
62
7
6
CONTINUOUS
0
LAYER
2
4
70
0
62
7
6
CONTINUOUS
0
LAYER
2
5
70
0
62
7
6
CONTINUOUS
0
LAYER
2
6
70
0
62
7
6
CONTINUOUS
0
LAYER
2
7
70
0
62
7
6
CONTINUOUS
0
LAYER
2
8
70
0
62
7
6
CONTINUOUS
0
LAYER
2
9
70
0
62
7
6
CONTINUOUS
0
ENDTAB
0
ENDSEC
0
SECTION
2
ENTITIES
0
TEXT
8
1
62
5
40
0.156
41
0.333333
50
0
1
Electric field from Poisson run on file CAPXY.AM
7
STANDARD
72
0
10
2.152499
20
7.134
0
TEXT
8
1
62
5
40
0.153443
41
0.333333
50
0
1
Problem title line 1: Coaxial Capacitor Using X,Y Coordinates
7
STANDARD
72
0
10
1.3125
20
6.835082
0
TEXT
8
1
62
5
40
0.078
41
0.333333
50
0
1
OUTPOI.TBL    4-19-2020  10:56:40
7
STANDARD
72
0
10
7.664999
20
6.642
0
TEXT
8
1
62
5
40
0.1716
41
0.333333
50
0
1
X (cm)
7
STANDARD
72
0
10
5.313
20
0.20865
0
LINE
8
1
62
5
39
0.006944
10
1.575
20
6.6
11
1.575
21
6.529219
0
LINE
8
1
62
5
39
0.006944
10
2.975
20
6.6
11
2.975
21
6.529219
0
LINE
8
1
62
5
39
0.006944
10
4.375
20
6.6
11
4.375
21
6.529219
0
LINE
8
1
62
5
39
0.006944
10
5.775
20
6.6
11
5.775
21
6.529219
0
LINE
8
1
62
5
39
0.006944
10
7.175
20
6.6
11
7.175
21
6.529219
0
LINE
8
1
62
5
39
0.006944
10
8.575001
20
6.6
11
8.575001
21
6.529219
0
LINE
8
1
62
5
39
0.006944
10
9.974999
20
6.6
11
9.974999
21
6.529219
0
LINE
8
1
62
5
6
DOT
39
0.006944
10
1.575
20
1.454193
11
9.974999
21
1.454193
0
LINE
8
1
62
5
6
DOT
39
0.006944
10
1.575
20
1.970886
11
9.974999
21
1.970886
0
LINE
8
1
62
5
6
DOT
39
0.006944
10
1.575
20
2.487579
11
9.974999
21
2.487579
0
LINE
8
1
62
5
6
DOT
39
0.006944
10
1.575
20
3.004272
11
9.974999
21
3.004272
0
LINE
8
1
62
5
6
DOT
39
0.006944
10
1.575
20
3.520965
11
9.974999
21
3.520965
0
LINE
8
1
62
5
6
DOT
39
0.006944
10
1.575
20
4.037658
11
9.974999
21
4.037658
0
LINE
8
1
62
5
6
DOT
39
0.006944
10
1.575
20
4.554351
11
9.974999
21
4.554351
0
LINE
8
1
62
5
6
DOT
39
0.006944
10
1.575
20
5.071043
11
9.974999
21
5.071043
0
LINE
8
1
62
5
6
DOT
39
0.006944
10
1.575
20
5.587737
11
9.974999
21
5.587737
0
LINE
8
1
62
5
6
DOT
39
0.006944
10
1.575
20
6.10443
11
9.974999
21
6.10443
0
LINE
8
1
62
5
39
0.006944
10
1.575
20
0.9375
11
1.68
21
0.9375
0
LINE
8
1
62
5
39
0.006944
10
1.575
20
1.454193
11
1.68
21
1.454193
0
LINE
8
1
62
5
39
0.006944
10
1.575
20
1.970886
11
1.68
21
1.970886
0
LINE
8
1
62
5
39
0.006944
10
1.575
20
2.487579
11
1.68
21
2.487579
0
LINE
8
1
62
5
39
0.006944
10
1.575
20
3.004272
11
1.68
21
3.004272
0
LINE
8
1
62
5
39
0.006944
10
1.575
20
3.520965
11
1.68
21
3.520965
0
LINE
8
1
62
5
39
0.006944
10
1.575
20
4.037658
11
1.68
21
4.037658
0
LINE
8
1
62
5
39
0.006944
10
1.575
20
4.554351
11
1.68
21
4.554351
0
LINE
8
1
62
5
39
0.006944
10
1.575
20
5.071043
11
1.68
21
5.071043
0
LINE
8
1
62
5
39
0.006944
10
1.575
20
5.587737
11
1.68
21
5.587737
0
LINE
8
1
62
5
39
0.006944
10
1.575
20
6.10443
11
1.68
21
6.10443
0
TEXT
8
1
62
5
40
0.1248
41
0.333333
50
0
1
0
7
STANDARD
72
0
10
1.3055
20
0.8847
0
TEXT
8
1
62
5
40
0.1248
41
0.333333
50
0
1
50
7
STANDARD
72
0
10
1.1935
20
1.401393
0
TEXT
8
1
62
5
40
0.1248
41
0.333333
50
0
1
100
7
STANDARD
72
0
10
1.0815
20
1.918086
0
TEXT
8
1
62
5
40
0.1248
41
0.333333
50
0
1
150
7
STANDARD
72
0
10
1.0815
20
2.434779
0
TEXT
8
1
62
5
40
0.1248
41
0.333333
50
0
1
200
7
STANDARD
72
0
10
1.0815
20
2.951472
0
TEXT
8
1
62
5
40
0.1248
41
0.333333
50
0
1
250
7
STANDARD
72
0
10
1.0815
20
3.468165
0
TEXT
8
1
62
5
40
0.1248
41
0.333333
50
0
1
300
7
STANDARD
72
0
10
1.0815
20
3.984858
0
TEXT
8
1
62
5
40
0.1248
41
0.333333
50
0
1
350
7
STANDARD
72
0
10
1.0815
20
4.50155
0
TEXT
8
1
62
5
40
0.1248
41
0.333333
50
0
1
400
7
STANDARD
72
0
10
1.0815
20
5.018243
0
TEXT
8
1
62
5
40
0.1248
41
0.333333
50
0
1
450
7
STANDARD
72
0
10
1.0815
20
5.534936
0
TEXT
8
1
62
5
40
0.1248
41
0.333333
50
0
1
500
7
STANDARD
72
0
10
1.0815
20
6.05163
0
LINE
8
1
62
5
39
0.006944
10
9.974999
20
0.9375
11
9.87
21
0.9375
0
LINE
8
1
62
5
39
0.006944
10
9.974999
20
1.454193
11
9.87
21
1.454193
0
LINE
8
1
62
5
39
0.006944
10
9.974999
20
1.970886
11
9.87
21
1.970886
0
LINE
8
1
62
5
39
0.006944
10
9.974999
20
2.487579
11
9.87
21
2.487579
0
LINE
8
1
62
5
39
0.006944
10
9.974999
20
3.004272
11
9.87
21
3.004272
0
LINE
8
1
62
5
39
0.006944
10
9.974999
20
3.520965
11
9.87
21
3.520965
0
LINE
8
1
62
5
39
0.006944
10
9.974999
20
4.037658
11
9.87
21
4.037658
0
LINE
8
1
62
5
39
0.006944
10
9.974999
20
4.554351
11
9.87
21
4.554351
0
LINE
8
1
62
5
39
0.006944
10
9.974999
20
5.071043
11
9.87
21
5.071043
0
LINE
8
1
62
5
39
0.006944
10
9.974999
20
5.587737
11
9.87
21
5.587737
0
LINE
8
1
62
5
39
0.006944
10
9.974999
20
6.10443
11
9.87
21
6.10443
0
LINE
8
1
62
5
39
0.006944
10
1.575
20
0.9375
11
1.575
21
1.008281
0
LINE
8
1
62
5
39
0.006944
10
2.975
20
0.9375
11
2.975
21
1.008281
0
LINE
8
1
62
5
39
0.006944
10
4.375
20
0.9375
11
4.375
21
1.008281
0
LINE
8
1
62
5
39
0.006944
10
5.775
20
0.9375
11
5.775
21
1.008281
0
LINE
8
1
62
5
39
0.006944
10
7.175
20
0.9375
11
7.175
21
1.008281
0
LINE
8
1
62
5
39
0.006944
10
8.575001
20
0.9375
11
8.575001
21
1.008281
0
LINE
8
1
62
5
39
0.006944
10
9.974999
20
0.9375
11
9.974999
21
1.008281
0
TEXT
8
1
62
5
40
0.1248
41
0.333333
50
0
1
2
7
STANDARD
72
0
10
1.519
20
0.64095
0
TEXT
8
1
62
5
40
0.1248
41
0.333333
50
0
1
2.5
7
STANDARD
72
0
10
2.807
20
0.64095
0
TEXT
8
1
62
5
40
0.1248
41
0.333333
50
0
1
3
7
STANDARD
72
0
10
4.319
20
0.64095
0
TEXT
8
1
62
5
40
0.1248
41
0.333333
50
0
1
3.5
7
STANDARD
72
0
10
5.607
20
0.64095
0
TEXT
8
1
62
5
40
0.1248
41
0.333333
50
0
1
4
7
STANDARD
72
0
10
7.119
20
0.64095
0
TEXT
8
1
62
5
40
0.1248
41
0.333333
50
0
1
4.5
7
STANDARD
72
0
10
8.407001
20
0.64095
0
TEXT
8
1
62
5
40
0.1248
41
0.333333
50
0
1
5
7
STANDARD
72
0
10
9.919001
20
0.64095
0
LINE
8
1
62
5
6
DOT
39
0.006944
10
2.975
20
0.9375
11
2.975
21
6.6
0
LINE
8
1
62
5
6
DOT
39
0.006944
10
4.375
20
0.9375
11
4.375
21
6.6
0
LINE
8
1
62
5
6
DOT
39
0.006944
10
5.775
20
0.9375
11
5.775
21
6.6
0
LINE
8
1
62
5
6
DOT
39
0.006944
10
7.175
20
0.9375
11
7.175
21
6.6
0
LINE
8
1
62
5
6
DOT
39
0.006944
10
8.575001
20
0.9375
11
8.575001
21
6.6
0
LINE
8
1
62
5
6
DOT
39
0.006944
10
9.974999
20
0.9375
11
9.974999
21
6.6
0
LINE
8
1
62
5
39
0.006944
10
1.575
20
0.9375
11
9.974999
21
0.9375
0
LINE
8
1
62
5
39
0.006944
10
9.974999
20
0.9375
11
9.974999
21
6.6
0
LINE
8
1
62
5
39
0.006944
10
9.974999
20
6.6
11
1.575
21
6.6
0
LINE
8
1
62
5
39
0.006944
10
1.575
20
6.6
11
1.575
21
0.9375
0
LINE
8
1
62
1
39
0.006944
10
1.561885
20
6.573688
11
1.588115
21
6.573688
0
LINE
8
1
62
1
39
0.006944
10
1.549836
20
6.584798
11
1.600165
21
6.584798
0
LINE
8
1
62
1
39
0.006944
10
1.545886
20
6.595909
11
1.604114
21
6.595909
0
LINE
8
1
62
1
39
0.006944
10
1.546451
20
6.60702
11
1.60355
21
6.60702
0
LINE
8
1
62
1
39
0.006944
10
1.551857
20
6.618131
11
1.598144
21
6.618131
0
LINE
8
1
62
1
39
0.006944
10
1.571958
20
6.629242
11
1.578043
21
6.629242
0
LINE
8
1
62
1
39
0.006944
10
1.834627
20
6.295907
11
1.875374
21
6.295907
0
LINE
8
1
62
1
39
0.006944
10
1.827384
20
6.307017
11
1.882616
21
6.307017
0
LINE
8
1
62
1
39
0.006944
10
1.825618
20
6.318128
11
1.884382
21
6.318128
0
LINE
8
1
62
1
39
0.006944
10
1.828222
20
6.329239
11
1.881778
21
6.329239
0
LINE
8
1
62
1
39
0.006944
10
1.837003
20
6.34035
11
1.872998
21
6.34035
0
LINE
8
1
62
1
39
0.006944
10
2.117
20
6.052848
11
2.153001
21
6.052848
0
LINE
8
1
62
1
39
0.006944
10
2.108221
20
6.063959
11
2.16178
21
6.063959
0
LINE
8
1
62
1
39
0.006944
10
2.105618
20
6.07507
11
2.164382
21
6.07507
0
LINE
8
1
62
1
39
0.006944
10
2.107385
20
6.086181
11
2.162616
21
6.086181
0
LINE
8
1
62
1
39
0.006944
10
2.11463
20
6.097292
11
2.155371
21
6.097292
0
LINE
8
1
62
1
39
0.006944
10
2.392042
20
5.835832
11
2.437958
21
5.835832
0
LINE
8
1
62
1
39
0.006944
10
2.386509
20
5.846942
11
2.443491
21
5.846942
0
LINE
8
1
62
1
39
0.006944
10
2.385854
20
5.858053
11
2.444146
21
5.858053
0
LINE
8
1
62
1
39
0.006944
10
2.389695
20
5.869164
11
2.440305
21
5.869164
0
LINE
8
1
62
1
39
0.006944
10
2.401425
20
5.880275
11
2.428576
21
5.880275
0
LINE
8
1
62
1
39
0.006944
10
2.67496
20
5.627496
11
2.715041
21
5.627496
0
LINE
8
1
62
1
39
0.006944
10
2.667502
20
5.638607
11
2.7225
21
5.638607
0
LINE
8
1
62
1
39
0.006944
10
2.665609
20
5.649718
11
2.724392
21
5.649718
0
LINE
8
1
62
1
39
0.006944
10
2.668082
20
5.660829
11
2.721919
21
5.660829
0
LINE
8
1
62
1
39
0.006944
10
2.676603
20
5.67194
11
2.713398
21
5.67194
0
LINE
8
1
62
1
39
0.006944
10
2.957045
20
5.436522
11
2.992956
21
5.436522
0
LINE
8
1
62
1
39
0.006944
10
2.948237
20
5.447632
11
3.001764
21
5.447632
0
LINE
8
1
62
1
39
0.006944
10
2.94562
20
5.458743
11
3.004381
21
5.458743
0
LINE
8
1
62
1
39
0.006944
10
2.947372
20
5.469854
11
3.002628
21
5.469854
0
LINE
8
1
62
1
39
0.006944
10
2.954593
20
5.480965
11
2.995408
21
5.480965
0
LINE
8
1
62
1
39
0.006944
10
3.235746
20
5.262908
11
3.274254
21
5.262908
0
LINE
8
1
62
1
39
0.006944
10
3.227779
20
5.274019
11
3.282221
21
5.274019
0
LINE
8
1
62
1
39
0.006944
10
3.2256
20
5.28513
11
3.2844
21
5.28513
0
LINE
8
1
62
1
39
0.006944
10
3.227782
20
5.296241
11
3.282218
21
5.296241
0
LINE
8
1
62
1
39
0.006944
10
3.235755
20
5.307352
11
3.274245
21
5.307352
0
LINE
8
1
62
1
39
0.006944
10
3.520291
20
5.097976
11
3.549711
21
5.097976
0
LINE
8
1
62
1
39
0.006944
10
3.509337
20
5.109087
11
3.560664
21
5.109087
0
LINE
8
1
62
1
39
0.006944
10
3.505779
20
5.120198
11
3.564222
21
5.120198
0
LINE
8
1
62
1
39
0.006944
10
3.506676
20
5.131309
11
3.563325
21
5.131309
0
LINE
8
1
62
1
39
0.006944
10
3.512555
20
5.142419
11
3.557446
21
5.142419
0
LINE
8
1
62
1
39
0.006944
10
3.796617
20
4.950405
11
3.833383
21
4.950405
0
LINE
8
1
62
1
39
0.006944
10
3.788087
20
4.961515
11
3.841913
21
4.961515
0
LINE
8
1
62
1
39
0.006944
10
3.785609
20
4.972627
11
3.844391
21
4.972627
0
LINE
8
1
62
1
39
0.006944
10
3.787497
20
4.983737
11
3.842503
21
4.983737
0
LINE
8
1
62
1
39
0.006944
10
3.794947
20
4.994848
11
3.835053
21
4.994848
0
LINE
8
1
62
1
39
0.006944
10
4.07568
20
4.811514
11
4.114322
21
4.811514
0
LINE
8
1
62
1
39
0.006944
10
4.067756
20
4.822625
11
4.122245
21
4.822625
0
LINE
8
1
62
1
39
0.006944
10
4.065601
20
4.833736
11
4.124401
21
4.833736
0
LINE
8
1
62
1
39
0.006944
10
4.067807
20
4.844847
11
4.122195
21
4.844847
0
LINE
8
1
62
1
39
0.006944
10
4.075823
20
4.855958
11
4.114179
21
4.855958
0
LINE
8
1
62
1
39
0.006944
10
4.355555
20
4.681304
11
4.394445
21
4.681304
0
LINE
8
1
62
1
39
0.006944
10
4.347712
20
4.692415
11
4.402289
21
4.692415
0
LINE
8
1
62
1
39
0.006944
10
4.345601
20
4.703526
11
4.4044
21
4.703526
0
LINE
8
1
62
1
39
0.006944
10
4.347851
20
4.714637
11
4.402149
21
4.714637
0
LINE
8
1
62
1
39
0.006944
10
4.35595
20
4.725748
11
4.394051
21
4.725748
0
LINE
8
1
62
1
39
0.006944
10
4.635175
20
4.559775
11
4.674825
21
4.559775
0
LINE
8
1
62
1
39
0.006944
10
4.627577
20
4.570886
11
4.682423
21
4.570886
0
LINE
8
1
62
1
39
0.006944
10
4.625605
20
4.581997
11
4.684396
21
4.581997
0
LINE
8
1
62
1
39
0.006944
10
4.627995
20
4.593108
11
4.682005
21
4.593108
0
LINE
8
1
62
1
39
0.006944
10
4.636358
20
4.604219
11
4.673643
21
4.604219
0
LINE
8
1
62
1
39
0.006944
10
4.913773
20
4.446927
11
4.956228
21
4.446927
0
LINE
8
1
62
1
39
0.006944
10
4.907087
20
4.458037
11
4.962914
21
4.458037
0
LINE
8
1
62
1
39
0.006944
10
4.905661
20
4.469148
11
4.96434
21
4.469148
0
LINE
8
1
62
1
39
0.006944
10
4.908627
20
4.480259
11
4.961374
21
4.480259
0
LINE
8
1
62
1
39
0.006944
10
4.918165
20
4.49137
11
4.951836
21
4.49137
0
LINE
8
1
62
1
39
0.006944
10
5.20113
20
4.334078
11
5.22887
21
4.334078
0
LINE
8
1
62
1
39
0.006944
10
5.189604
20
4.34519
11
5.240396
21
4.34519
0
LINE
8
1
62
1
39
0.006944
10
5.185834
20
4.356301
11
5.244167
21
4.356301
0
LINE
8
1
62
1
39
0.006944
10
5.18655
20
4.367412
11
5.243451
21
4.367412
0
LINE
8
1
62
1
39
0.006944
10
5.192168
20
4.378523
11
5.237832
21
4.378523
0
LINE
8
1
62
1
39
0.006944
10
5.473907
20
4.238591
11
5.516094
21
4.238591
0
LINE
8
1
62
1
39
0.006944
10
5.467134
20
4.249702
11
5.522868
21
4.249702
0
LINE
8
1
62
1
39
0.006944
10
5.465652
20
4.260813
11
5.524349
21
4.260813
0
LINE
8
1
62
1
39
0.006944
10
5.468559
20
4.271924
11
5.521442
21
4.271924
0
LINE
8
1
62
1
39
0.006944
10
5.47797
20
4.283036
11
5.512032
21
4.283036
0
LINE
8
1
62
1
39
0.006944
10
5.754246
20
4.143104
11
5.795754
21
4.143104
0
LINE
8
1
62
1
39
0.006944
10
5.747251
20
4.154215
11
5.802749
21
4.154215
0
LINE
8
1
62
1
39
0.006944
10
5.745634
20
4.165326
11
5.804367
21
4.165326
0
LINE
8
1
62
1
39
0.006944
10
5.748394
20
4.176437
11
5.801606
21
4.176437
0
LINE
8
1
62
1
39
0.006944
10
5.757495
20
4.187549
11
5.792505
21
4.187549
0
LINE
8
1
62
1
39
0.006944
10
6.042208
20
4.047616
11
6.067792
21
4.047616
0
LINE
8
1
62
1
39
0.006944
10
6.029931
20
4.058728
11
6.080069
21
4.058728
0
LINE
8
1
62
1
39
0.006944
10
6.025909
20
4.069839
11
6.084091
21
4.069839
0
LINE
8
1
62
1
39
0.006944
10
6.026412
20
4.08095
11
6.083588
21
4.08095
0
LINE
8
1
62
1
39
0.006944
10
6.031734
20
4.092062
11
6.078266
21
4.092062
0
LINE
8
1
62
1
39
0.006944
10
6.050708
20
4.103173
11
6.059292
21
4.103173
0
LINE
8
1
62
1
39
0.006944
10
6.313118
20
3.969491
11
6.356883
21
3.969491
0
LINE
8
1
62
1
39
0.006944
10
6.306863
20
3.980602
11
6.363138
21
3.980602
0
LINE
8
1
62
1
39
0.006944
10
6.305715
20
3.991713
11
6.364286
21
3.991713
0
LINE
8
1
62
1
39
0.006944
10
6.308987
20
4.002824
11
6.361014
21
4.002824
0
LINE
8
1
62
1
39
0.006944
10
6.319227
20
4.013936
11
6.350773
21
4.013936
0
LINE
8
1
62
1
39
0.006944
10
6.601203
20
3.882684
11
6.628797
21
3.882684
0
LINE
8
1
62
1
39
0.006944
10
6.589626
20
3.893795
11
6.640374
21
3.893795
0
LINE
8
1
62
1
39
0.006944
10
6.585839
20
3.904907
11
6.644162
21
3.904907
0
LINE
8
1
62
1
39
0.006944
10
6.586539
20
3.916018
11
6.643461
21
3.916018
0
LINE
8
1
62
1
39
0.006944
10
6.592137
20
3.927129
11
6.637864
21
3.927129
0
LINE
8
1
62
1
39
0.006944
10
6.872619
20
3.813239
11
6.917382
21
3.813239
0
LINE
8
1
62
1
39
0.006944
10
6.866696
20
3.82435
11
6.923305
21
3.82435
0
LINE
8
1
62
1
39
0.006944
10
6.865771
20
3.835461
11
6.924231
21
3.835461
0
LINE
8
1
62
1
39
0.006944
10
6.869296
20
3.846572
11
6.920705
21
3.846572
0
LINE
8
1
62
1
39
0.006944
10
6.880164
20
3.857684
11
6.909837
21
3.857684
0
LINE
8
1
62
1
39
0.006944
10
7.15902
20
3.735113
11
7.19098
21
3.735113
0
LINE
8
1
62
1
39
0.006944
10
7.148917
20
3.746224
11
7.201083
21
3.746224
0
LINE
8
1
62
1
39
0.006944
10
7.145702
20
3.757335
11
7.204298
21
3.757335
0
LINE
8
1
62
1
39
0.006944
10
7.146904
20
3.768447
11
7.203097
21
3.768447
0
LINE
8
1
62
1
39
0.006944
10
7.153237
20
3.779558
11
7.196763
21
3.779558
0
LINE
8
1
62
1
39
0.006944
10
7.439788
20
3.665668
11
7.470212
21
3.665668
0
LINE
8
1
62
1
39
0.006944
10
7.429173
20
3.676779
11
7.480827
21
3.676779
0
LINE
8
1
62
1
39
0.006944
10
7.425747
20
3.68789
11
7.484253
21
3.68789
0
LINE
8
1
62
1
39
0.006944
10
7.426759
20
3.699001
11
7.483241
21
3.699001
0
LINE
8
1
62
1
39
0.006944
10
7.43281
20
3.710113
11
7.47719
21
3.710113
0
LINE
8
1
62
1
39
0.006944
10
7.713686
20
3.604903
11
7.756314
21
3.604903
0
LINE
8
1
62
1
39
0.006944
10
7.707056
20
3.616014
11
7.762944
21
3.616014
0
LINE
8
1
62
1
39
0.006944
10
7.705666
20
3.627126
11
7.764334
21
3.627126
0
LINE
8
1
62
1
39
0.006944
10
7.708672
20
3.638237
11
7.761328
21
3.638237
0
LINE
8
1
62
1
39
0.006944
10
7.718298
20
3.649348
11
7.751702
21
3.649348
0
LINE
8
1
62
1
39
0.006944
10
7.992075
20
3.544138
11
8.037926
21
3.544138
0
LINE
8
1
62
1
39
0.006944
10
7.98652
20
3.55525
11
8.043481
21
3.55525
0
LINE
8
1
62
1
39
0.006944
10
7.985849
20
3.566361
11
8.044152
21
3.566361
0
LINE
8
1
62
1
39
0.006944
10
7.989673
20
3.577472
11
8.040328
21
3.577472
0
LINE
8
1
62
1
39
0.006944
10
8.00135
20
3.588583
11
8.028651
21
3.588583
0
LINE
8
1
62
1
39
0.006944
10
8.272926
20
3.483374
11
8.317075
21
3.483374
0
LINE
8
1
62
1
39
0.006944
10
8.266799
20
3.494485
11
8.323202
21
3.494485
0
LINE
8
1
62
1
39
0.006944
10
8.265735
20
3.505596
11
8.324266
21
3.505596
0
LINE
8
1
62
1
39
0.006944
10
8.269102
20
3.516708
11
8.320899
21
3.516708
0
LINE
8
1
62
1
39
0.006944
10
8.279572
20
3.527819
11
8.31043
21
3.527819
0
LINE
8
1
62
1
39
0.006944
10
8.556828
20
3.422609
11
8.593173
21
3.422609
0
LINE
8
1
62
1
39
0.006944
10
8.548161
20
3.433721
11
8.60184
21
3.433721
0
LINE
8
1
62
1
39
0.006944
10
8.545613
20
3.444832
11
8.604387
21
3.444832
0
LINE
8
1
62
1
39
0.006944
10
8.547435
20
3.455943
11
8.602566
21
3.455943
0
LINE
8
1
62
1
39
0.006944
10
8.554771
20
3.467054
11
8.595229
21
3.467054
0
LINE
8
1
62
1
39
0.006944
10
8.834076
20
3.370525
11
8.875924
21
3.370525
0
LINE
8
1
62
1
39
0.006944
10
8.827191
20
3.381637
11
8.882809
21
3.381637
0
LINE
8
1
62
1
39
0.006944
10
8.825642
20
3.392748
11
8.884358
21
3.392748
0
LINE
8
1
62
1
39
0.006944
10
8.828476
20
3.403859
11
8.881525
21
3.403859
0
LINE
8
1
62
1
39
0.006944
10
8.83773
20
3.41497
11
8.872271
21
3.41497
0
LINE
8
1
62
1
39
0.006944
10
9.114227
20
3.318441
11
9.155772
21
3.318441
0
LINE
8
1
62
1
39
0.006944
10
9.107244
20
3.329553
11
9.162755
21
3.329553
0
LINE
8
1
62
1
39
0.006944
10
9.105635
20
3.340664
11
9.164366
21
3.340664
0
LINE
8
1
62
1
39
0.006944
10
9.108403
20
3.351775
11
9.161597
21
3.351775
0
LINE
8
1
62
1
39
0.006944
10
9.11752
20
3.362886
11
9.15248
21
3.362886
0
LINE
8
1
62
1
39
0.006944
10
9.396004
20
3.266357
11
9.433998
21
3.266357
0
LINE
8
1
62
1
39
0.006944
10
9.387871
20
3.277469
11
9.442131
21
3.277469
0
LINE
8
1
62
1
39
0.006944
10
9.385602
20
3.28858
11
9.4444
21
3.28858
0
LINE
8
1
62
1
39
0.006944
10
9.387694
20
3.299691
11
9.442307
21
3.299691
0
LINE
8
1
62
1
39
0.006944
10
9.395506
20
3.310802
11
9.434496
21
3.310802
0
LINE
8
1
62
1
39
0.006944
10
9.672003
20
3.222954
11
9.717999
21
3.222954
0
LINE
8
1
62
1
39
0.006944
10
9.666497
20
3.234065
11
9.723505
21
3.234065
0
LINE
8
1
62
1
39
0.006944
10
9.665862
20
3.245177
11
9.724139
21
3.245177
0
LINE
8
1
62
1
39
0.006944
10
9.669726
20
3.256288
11
9.720275
21
3.256288
0
LINE
8
1
62
1
39
0.006944
10
9.681524
20
3.267399
11
9.708477
21
3.267399
0
LINE
8
1
62
1
39
0.006944
10
9.960226
20
3.17087
11
9.989775
21
3.17087
0
LINE
8
1
62
1
39
0.006944
10
9.949316
20
3.181982
11
10.000685
21
3.181982
0
LINE
8
1
62
1
39
0.006944
10
9.945775
20
3.193093
11
10.004227
21
3.193093
0
LINE
8
1
62
1
39
0.006944
10
9.946686
20
3.204204
11
10.003315
21
3.204204
0
LINE
8
1
62
1
39
0.006944
10
9.952587
20
3.215315
11
9.997414
21
3.215315
0
LINE
8
1
62
1
39
0.006944
10
1.575
20
6.6
11
1.855
21
6.317102
0
LINE
8
1
62
1
39
0.006944
10
1.855
20
6.317102
11
2.135
21
6.076093
0
LINE
8
1
62
1
39
0.006944
10
2.135
20
6.076093
11
2.415
21
5.854198
0
LINE
8
1
62
1
39
0.006944
10
2.415
20
5.854198
11
2.695001
21
5.649007
0
LINE
8
1
62
1
39
0.006944
10
2.695001
20
5.649007
11
2.975
21
5.459801
0
LINE
8
1
62
1
39
0.006944
10
2.975
20
5.459801
11
3.255
21
5.285126
0
LINE
8
1
62
1
39
0.006944
10
3.255
20
5.285126
11
3.535001
21
5.123431
0
LINE
8
1
62
1
39
0.006944
10
3.535001
20
5.123431
11
3.815
21
4.973349
0
LINE
8
1
62
1
39
0.006944
10
3.815
20
4.973349
11
4.095001
21
4.833674
0
LINE
8
1
62
1
39
0.006944
10
4.095001
20
4.833674
11
4.375
21
4.703355
0
LINE
8
1
62
1
39
0.006944
10
4.375
20
4.703355
11
4.655
21
4.581485
0
LINE
8
1
62
1
39
0.006944
10
4.655
20
4.581485
11
4.935
21
4.467268
0
LINE
8
1
62
1
39
0.006944
10
4.935
20
4.467268
11
5.215
21
4.360001
0
LINE
8
1
62
1
39
0.006944
10
5.215
20
4.360001
11
5.495001
21
4.259071
0
LINE
8
1
62
1
39
0.006944
10
5.495001
20
4.259071
11
5.775
21
4.163928
0
LINE
8
1
62
1
39
0.006944
10
5.775
20
4.163928
11
6.055
21
4.074088
0
LINE
8
1
62
1
39
0.006944
10
6.055
20
4.074088
11
6.335001
21
3.989125
0
LINE
8
1
62
1
39
0.006944
10
6.335001
20
3.989125
11
6.615
21
3.908646
0
LINE
8
1
62
1
39
0.006944
10
6.615
20
3.908646
11
6.895
21
3.832302
0
LINE
8
1
62
1
39
0.006944
10
6.895
20
3.832302
11
7.175
21
3.759791
0
LINE
8
1
62
1
39
0.006944
10
7.175
20
3.759791
11
7.455
21
3.690827
0
LINE
8
1
62
1
39
0.006944
10
7.455
20
3.690827
11
7.735
21
3.625153
0
LINE
8
1
62
1
39
0.006944
10
7.735
20
3.625153
11
8.015
21
3.562544
0
LINE
8
1
62
1
39
0.006944
10
8.015
20
3.562544
11
8.295
21
3.502793
0
LINE
8
1
62
1
39
0.006944
10
8.295
20
3.502793
11
8.575001
21
3.44572
0
LINE
8
1
62
1
39
0.006944
10
8.575001
20
3.44572
11
8.855
21
3.391178
0
LINE
8
1
62
1
39
0.006944
10
8.855
20
3.391178
11
9.135
21
3.339247
0
LINE
8
1
62
1
39
0.006944
10
9.135
20
3.339247
11
9.415001
21
3.288795
0
LINE
8
1
62
1
39
0.006944
10
9.415001
20
3.288795
11
9.695001
21
3.24127
0
LINE
8
1
62
1
39
0.006944
10
9.695001
20
3.24127
11
9.975
21
3.196288
0
SOLID
8
1
62
92
10
1.545601
20
0.880716
11
1.6044
21
0.9375
12
1.545601
22
0.994284
13
1.545601
23
0.994284
0
SOLID
8
1
62
92
10
1.8256
20
0.880716
11
1.8844
21
0.9375
12
1.8256
22
0.994284
13
1.8256
23
0.994284
0
SOLID
8
1
62
92
10
2.105601
20
0.880716
11
2.1644
21
0.9375
12
2.105601
22
0.994284
13
2.105601
23
0.994284
0
SOLID
8
1
62
92
10
2.3856
20
0.880716
11
2.4444
21
0.9375
12
2.3856
22
0.994284
13
2.3856
23
0.994284
0
SOLID
8
1
62
92
10
2.665601
20
0.880716
11
2.724401
21
0.9375
12
2.665601
22
0.994284
13
2.665601
23
0.994284
0
SOLID
8
1
62
92
10
2.945601
20
0.880716
11
3.0044
21
0.9375
12
2.945601
22
0.994284
13
2.945601
23
0.994284
0
SOLID
8
1
62
92
10
3.2256
20
0.880716
11
3.2844
21
0.9375
12
3.2256
22
0.994284
13
3.2256
23
0.994284
0
SOLID
8
1
62
92
10
3.5056
20
0.880716
11
3.5644
21
0.9375
12
3.5056
22
0.994284
13
3.5056
23
0.994284
0
SOLID
8
1
62
92
10
3.7856
20
0.880716
11
3.8444
21
0.9375
12
3.7856
22
0.994284
13
3.7856
23
0.994284
0
SOLID
8
1
62
92
10
4.065601
20
0.880716
11
4.124401
21
0.9375
12
4.065601
22
0.994284
13
4.065601
23
0.994284
0
SOLID
8
1
62
92
10
4.345601
20
0.880716
11
4.4044
21
0.9375
12
4.345601
22
0.994284
13
4.345601
23
0.994284
0
SOLID
8
1
62
92
10
4.6256
20
0.880716
11
4.6844
21
0.9375
12
4.6256
22
0.994284
13
4.6256
23
0.994284
0
SOLID
8
1
62
92
10
4.905601
20
0.880716
11
4.9644
21
0.9375
12
4.905601
22
0.994284
13
4.905601
23
0.994284
0
SOLID
8
1
62
92
10
5.1856
20
0.880716
11
5.2444
21
0.9375
12
5.1856
22
0.994284
13
5.1856
23
0.994284
0
SOLID
8
1
62
92
10
5.4656
20
0.880716
11
5.5244
21
0.9375
12
5.4656
22
0.994284
13
5.4656
23
0.994284
0
SOLID
8
1
62
92
10
5.745601
20
0.880716
11
5.8044
21
0.9375
12
5.745601
22
0.994284
13
5.745601
23
0.994284
0
SOLID
8
1
62
92
10
6.0256
20
0.880716
11
6.0844
21
0.9375
12
6.0256
22
0.994284
13
6.0256
23
0.994284
0
SOLID
8
1
62
92
10
6.305601
20
0.880716
11
6.3644
21
0.9375
12
6.305601
22
0.994284
13
6.305601
23
0.994284
0
SOLID
8
1
62
92
10
6.5856
20
0.880716
11
6.6444
21
0.9375
12
6.5856
22
0.994284
13
6.5856
23
0.994284
0
SOLID
8
1
62
92
10
6.865601
20
0.880716
11
6.924401
21
0.9375
12
6.865601
22
0.994284
13
6.865601
23
0.994284
0
SOLID
8
1
62
92
10
7.145601
20
0.880716
11
7.2044
21
0.9375
12
7.145601
22
0.994284
13
7.145601
23
0.994284
0
SOLID
8
1
62
92
10
7.4256
20
0.880716
11
7.4844
21
0.9375
12
7.4256
22
0.994284
13
7.4256
23
0.994284
0
SOLID
8
1
62
92
10
7.7056
20
0.880716
11
7.7644
21
0.9375
12
7.7056
22
0.994284
13
7.7056
23
0.994284
0
SOLID
8
1
62
92
10
7.985601
20
0.880716
11
8.0444
21
0.9375
12
7.985601
22
0.994284
13
7.985601
23
0.994284
0
SOLID
8
1
62
92
10
8.2656
20
0.880716
11
8.324401
21
0.9375
12
8.2656
22
0.994284
13
8.2656
23
0.994284
0
SOLID
8
1
62
92
10
8.5456
20
0.880716
11
8.604401
21
0.9375
12
8.5456
22
0.994284
13
8.5456
23
0.994284
0
SOLID
8
1
62
92
10
8.825601
20
0.880716
11
8.8844
21
0.9375
12
8.825601
22
0.994284
13
8.825601
23
0.994284
0
SOLID
8
1
62
92
10
9.1056
20
0.880716
11
9.164399
21
0.9375
12
9.1056
22
0.994284
13
9.1056
23
0.994284
0
SOLID
8
1
62
92
10
9.385601
20
0.880716
11
9.444401
21
0.9375
12
9.385601
22
0.994284
13
9.385601
23
0.994284
0
SOLID
8
1
62
92
10
9.665601
20
0.880716
11
9.724401
21
0.9375
12
9.665601
22
0.994284
13
9.665601
23
0.994284
0
SOLID
8
1
62
92
10
9.945601
20
0.880716
11
10.0044
21
0.9375
12
9.945601
22
0.994284
13
9.945601
23
0.994284
0
LINE
8
1
62
92
39
0.006944
10
1.575
20
0.9375
11
1.855
21
0.9375
0
LINE
8
1
62
92
39
0.006944
10
1.855
20
0.9375
11
2.135
21
0.9375
0
LINE
8
1
62
92
39
0.006944
10
2.135
20
0.9375
11
2.415
21
0.9375
0
LINE
8
1
62
92
39
0.006944
10
2.415
20
0.9375
11
2.695001
21
0.9375
0
LINE
8
1
62
92
39
0.006944
10
2.695001
20
0.9375
11
2.975
21
0.9375
0
LINE
8
1
62
92
39
0.006944
10
2.975
20
0.9375
11
3.255
21
0.9375
0
LINE
8
1
62
92
39
0.006944
10
3.255
20
0.9375
11
3.535001
21
0.9375
0
LINE
8
1
62
92
39
0.006944
10
3.535001
20
0.9375
11
3.815
21
0.9375
0
LINE
8
1
62
92
39
0.006944
10
3.815
20
0.9375
11
4.095001
21
0.9375
0
LINE
8
1
62
92
39
0.006944
10
4.095001
20
0.9375
11
4.375
21
0.9375
0
LINE
8
1
62
92
39
0.006944
10
4.375
20
0.9375
11
4.655
21
0.9375
0
LINE
8
1
62
92
39
0.006944
10
4.655
20
0.9375
11
4.935
21
0.9375
0
LINE
8
1
62
92
39
0.006944
10
4.935
20
0.9375
11
5.215
21
0.9375
0
LINE
8
1
62
92
39
0.006944
10
5.215
20
0.9375
11
5.495001
21
0.9375
0
LINE
8
1
62
92
39
0.006944
10
5.495001
20
0.9375
11
5.775
21
0.9375
0
LINE
8
1
62
92
39
0.006944
10
5.775
20
0.9375
11
6.055
21
0.9375
0
LINE
8
1
62
92
39
0.006944
10
6.055
20
0.9375
11
6.335001
21
0.9375
0
LINE
8
1
62
92
39
0.006944
10
6.335001
20
0.9375
11
6.615
21
0.9375
0
LINE
8
1
62
92
39
0.006944
10
6.615
20
0.9375
11
6.895
21
0.9375
0
LINE
8
1
62
92
39
0.006944
10
6.895
20
0.9375
11
7.175
21
0.9375
0
LINE
8
1
62
92
39
0.006944
10
7.175
20
0.9375
11
7.455
21
0.9375
0
LINE
8
1
62
92
39
0.006944
10
7.455
20
0.9375
11
7.735
21
0.9375
0
LINE
8
1
62
92
39
0.006944
10
7.735
20
0.9375
11
8.015
21
0.9375
0
LINE
8
1
62
92
39
0.006944
10
8.015
20
0.9375
11
8.295
21
0.9375
0
LINE
8
1
62
92
39
0.006944
10
8.295
20
0.9375
11
8.575001
21
0.9375
0
LINE
8
1
62
92
39
0.006944
10
8.575001
20
0.9375
11
8.855
21
0.9375
0
LINE
8
1
62
92
39
0.006944
10
8.855
20
0.9375
11
9.135
21
0.9375
0
LINE
8
1
62
92
39
0.006944
10
9.135
20
0.9375
11
9.415001
21
0.9375
0
LINE
8
1
62
92
39
0.006944
10
9.415001
20
0.9375
11
9.695001
21
0.9375
0
LINE
8
1
62
92
39
0.006944
10
9.695001
20
0.9375
11
9.975
21
0.9375
0
TEXT
8
1
62
1
40
0.0858
41
0.333333
50
338
1
Ex
7
STANDARD
72
0
10
5.194084
20
4.197151
0
TEXT
8
1
62
92
40
0.0858
41
0.333333
50
0
1
Ey
7
STANDARD
72
0
10
5.65074
20
0.77745
0
ENDSEC
0
EOF
